<svg width="32" height="32" viewBox="0 0 32 32" fill="none" xmlns="http://www.w3.org/2000/svg">
<rect width="32" height="32" rx="6" fill="#435ebe"/>
<path d="M6.9 23C5.1 23 3.6 22.3 2.4 20.9C1.2 19.5 0.6 17.8 0.6 15.8C0.6 13.8 1.2 12.1 2.4 10.7C3.6 9.3 5.1 8.6 6.9 8.6H12C12.4 8.6 12.6 8.8 12.6 9.2V11.8C12.6 12.2 12.4 12.4 12 12.4H6.9C6.1 12.4 5.5 12.7 4.9 13.2C4.4 13.7 4.1 14.7 4.1 15.8C4.1 16.9 4.4 17.6 4.9 18.2C5.5 18.7 6.1 19 6.9 19H8.7V16.1C8.7 15.7 8.9 15.5 9.3 15.5H12C12.4 15.5 12.6 15.7 12.6 16.1V22.4C12.6 22.8 12.4 23 12 23H6.9ZM18.9 23C17.1 23 15.6 22.3 14.4 20.9C13.2 19.5 12.6 17.8 12.6 15.8C12.6 13.8 13.2 12.1 14.4 10.7C15.6 9.3 17.1 8.6 18.9 8.6H24C24.4 8.6 24.6 8.8 24.6 9.2V11.8C24.6 12.2 24.4 12.4 24 12.4H18.9C18.1 12.4 17.5 12.7 16.9 13.2C16.4 13.7 16.1 14.7 16.1 15.8C16.1 16.9 16.4 17.6 16.9 18.2C17.5 18.7 18.1 19 18.9 19H20.7V16.1C20.7 15.7 20.9 15.5 21.3 15.5H24C24.4 15.5 24.6 15.7 24.6 16.1V22.4C24.6 22.8 24.4 23 24 23H18.9Z" fill="white"/>
<path d="M30.1 8.6C31.9 8.6 33.4 9.3 34.6 10.7C35.8 12.1 36.4 13.8 36.4 15.8C36.4 17.8 35.8 19.5 34.6 20.9C33.4 22.3 31.9 23 30.1 23H25C24.6 23 24.4 22.8 24.4 22.4V19.8C24.4 19.4 24.6 19.2 25 19.2H30.1C30.9 19.2 31.5 18.9 32.1 18.4C32.6 17.9 32.9 16.9 32.9 15.8C32.9 14.7 32.6 14 32.1 13.4C31.5 12.9 30.9 12.6 30.1 12.6H25C24.6 12.6 24.4 12.4 24.4 12V9.4C24.4 8.8 24.6 8.6 25 8.6H30.1Z" fill="#FF9800"/>
</svg>
