<svg width="104" height="33" viewBox="0 0 104 33" fill="none" xmlns="http://www.w3.org/2000/svg">
<path d="M17.5781 33C12.7188 33 8.57031 31.3984 5.13281 28.1953C1.71094 24.9922 0 21.125 0 16.5938C0 12.0625 1.71094 8.19531 5.13281 4.99219C8.57031 1.78906 12.7188 0.1875 17.5781 0.1875H31.6406C32.4219 0.1875 32.8125 0.578125 32.8125 1.35938V8.39062C32.8125 9.17188 32.4219 9.5625 31.6406 9.5625H17.5781C15.3125 9.5625 13.375 10.25 11.7656 11.625C10.1719 13 9.375 14.6562 9.375 16.5938C9.375 18.5312 10.1719 20.1875 11.7656 21.5625C13.375 22.9375 15.3125 23.625 17.5781 23.625H23.4375V15.4219C23.4375 14.6406 23.8281 14.25 24.6094 14.25H31.6406C32.4219 14.25 32.8125 14.6406 32.8125 15.4219V31.8281C32.8125 32.6094 32.4219 33 31.6406 33H17.5781ZM52.7344 33C47.875 33 43.7266 31.3984 40.2891 28.1953C36.8672 24.9922 35.1562 21.125 35.1562 16.5938C35.1562 12.0625 36.8672 8.19531 40.2891 4.99219C43.7266 1.78906 47.875 0.1875 52.7344 0.1875H66.7969C67.5781 0.1875 67.9688 0.578125 67.9688 1.35938V8.39062C67.9688 9.17188 67.5781 9.5625 66.7969 9.5625H52.7344C50.4688 9.5625 48.5312 10.25 46.9219 11.625C45.3281 13 44.5312 14.6562 44.5312 16.5938C44.5312 18.5312 45.3281 20.1875 46.9219 21.5625C48.5312 22.9375 50.4688 23.625 52.7344 23.625H58.5938V15.4219C58.5938 14.6406 58.9844 14.25 59.7656 14.25H66.7969C67.5781 14.25 67.9688 14.6406 67.9688 15.4219V31.8281C67.9688 32.6094 67.5781 33 66.7969 33H52.7344Z" fill="black"/>
<path d="M85.5469 0.1875C90.4062 0.1875 94.5469 1.78906 97.9688 4.99219C101.406 8.19531 103.125 12.0625 103.125 16.5938C103.125 21.125 101.406 24.9922 97.9688 28.1953C94.5469 31.3984 90.4062 33 85.5469 33H71.4844C70.7031 33 70.3125 32.6094 70.3125 31.8281V24.7969C70.3125 24.0156 70.7031 23.625 71.4844 23.625H85.5469C87.8125 23.625 89.7422 22.9375 91.3359 21.5625C92.9453 20.1875 93.75 18.5312 93.75 16.5938C93.75 14.6562 92.9453 13 91.3359 11.625C89.7422 10.25 87.8125 9.5625 85.5469 9.5625H71.4844C70.7031 9.5625 70.3125 9.17188 70.3125 8.39062V1.35938C70.3125 0.578125 70.7031 0.1875 71.4844 0.1875H85.5469Z" fill="#E2501B"/>
</svg>
