<svg width="105" height="35" viewBox="0 0 105 35" fill="none" xmlns="http://www.w3.org/2000/svg">
<path d="M18.5781 34.4688C13.5469 34.4688 9.25781 32.8203 5.71094 29.5234C2.17969 26.2109 0.414062 22.2344 0.414062 17.5938C0.414062 12.9531 2.17969 8.98438 5.71094 5.6875C9.25781 2.375 13.5469 0.71875 18.5781 0.71875H32.6406C33.8125 0.71875 34.3984 1.26562 34.3984 2.35938V9.39062C34.3984 10.4844 33.8125 11.0312 32.6406 11.0312H18.5781C16.4844 11.0312 14.6875 11.6719 13.1875 12.9531C11.7031 14.2344 10.9609 15.7812 10.9609 17.5938C10.9609 19.4062 11.7031 20.9531 13.1875 22.2344C14.6875 23.5156 16.4844 24.1562 18.5781 24.1562H23.8516V16.4219C23.8516 15.3281 24.4375 14.7812 25.6094 14.7812H32.6406C33.8125 14.7812 34.3984 15.3281 34.3984 16.4219V32.8281C34.3984 33.9219 33.8125 34.4688 32.6406 34.4688H18.5781ZM53.7344 34.4688C48.7031 34.4688 44.4141 32.8203 40.8672 29.5234C37.3359 26.2109 35.5703 22.2344 35.5703 17.5938C35.5703 12.9531 37.3359 8.98438 40.8672 5.6875C44.4141 2.375 48.7031 0.71875 53.7344 0.71875H67.7969C68.9688 0.71875 69.5547 1.26562 69.5547 2.35938V9.39062C69.5547 10.4844 68.9688 11.0312 67.7969 11.0312H53.7344C51.6406 11.0312 49.8438 11.6719 48.3438 12.9531C46.8594 14.2344 46.1172 15.7812 46.1172 17.5938C46.1172 19.4062 46.8594 20.9531 48.3438 22.2344C49.8438 23.5156 51.6406 24.1562 53.7344 24.1562H59.0078V16.4219C59.0078 15.3281 59.5938 14.7812 60.7656 14.7812H67.7969C68.9688 14.7812 69.5547 15.3281 69.5547 16.4219V32.8281C69.5547 33.9219 68.9688 34.4688 67.7969 34.4688H53.7344Z" fill="white"/>
<path d="M86.5469 0.71875C91.5781 0.71875 95.8594 2.375 99.3906 5.6875C102.938 8.98438 104.711 12.9531 104.711 17.5938C104.711 22.2344 102.938 26.2109 99.3906 29.5234C95.8594 32.8203 91.5781 34.4688 86.5469 34.4688H72.4844C71.3125 34.4688 70.7266 33.9219 70.7266 32.8281V25.7969C70.7266 24.7031 71.3125 24.1562 72.4844 24.1562H86.5469C88.6406 24.1562 90.4297 23.5156 91.9141 22.2344C93.4141 20.9531 94.1641 19.4062 94.1641 17.5938C94.1641 15.7812 93.4141 14.2344 91.9141 12.9531C90.4297 11.6719 88.6406 11.0312 86.5469 11.0312H72.4844C71.3125 11.0312 70.7266 10.4844 70.7266 9.39062V2.35938C70.7266 1.26562 71.3125 0.71875 72.4844 0.71875H86.5469Z" fill="#FF9800"/>
</svg>
